<svg width="72" height="72" viewBox="0 0 72 72" fill="none" xmlns="http://www.w3.org/2000/svg">
<g clip-path="url(#clip0_1_228)">
<g clip-path="url(#clip1_1_228)">
<g clip-path="url(#clip2_1_228)">
<path d="M27.7773 50.625C25.2922 50.625 23.2773 48.6101 23.2773 46.125V41.625C23.2773 39.1399 25.2922 37.125 27.7773 37.125V50.625Z" fill="#6FA4D8"/>
</g>
<g clip-path="url(#clip3_1_228)">
<path d="M45.7773 50.625C48.2625 50.625 50.2773 48.6101 50.2773 46.125V41.625C50.2773 39.1399 48.2625 37.125 45.7773 37.125V50.625Z" fill="#5C76B2"/>
</g>
<g clip-path="url(#clip4_1_228)">
<path d="M45.7774 16.875H27.7773C25.2922 16.875 23.2773 18.8899 23.2773 21.375V32.625C23.2773 35.1101 25.2922 37.125 27.7773 37.125V50.625C27.7773 54.3532 30.7991 57.375 34.5273 57.375H39.0274C42.7556 57.375 45.7774 54.3532 45.7774 50.625V37.125C48.2625 37.125 50.2774 35.1101 50.2774 32.625V21.375C50.2774 18.8899 48.2625 16.875 45.7774 16.875Z" fill="#F68820"/>
</g>
<g clip-path="url(#clip5_1_228)">
<path d="M32.2774 16.875H21.0273C19.7842 16.875 18.7773 15.8681 18.7773 14.625V13.5C18.7773 12.879 18.2733 12.375 17.6523 12.375C17.0313 12.375 16.5273 12.879 16.5273 13.5V16.875C16.5273 19.3601 18.5422 21.375 21.0273 21.375H30.0274C33.7556 21.375 36.7774 24.3968 36.7774 28.125V21.375C36.7774 18.8899 34.7625 16.875 32.2774 16.875Z" fill="#6FA4D8"/>
</g>
<g clip-path="url(#clip6_1_228)">
<path d="M41.2773 16.875H52.5273C53.7705 16.875 54.7773 15.8681 54.7773 14.625V13.5C54.7773 12.879 55.2813 12.375 55.9023 12.375C56.5233 12.375 57.0273 12.879 57.0273 13.5V16.875C57.0273 19.3601 55.0125 21.375 52.5273 21.375H43.5273C39.7991 21.375 36.7773 24.3968 36.7773 28.125V21.375C36.7773 18.8899 38.7922 16.875 41.2773 16.875Z" fill="#5C76B2"/>
</g>
<g clip-path="url(#clip7_1_228)">
<g clip-path="url(#clip8_1_228)">
<path d="M54.7773 66.375V70.875H16.5273V66.375H54.7773Z" fill="#F68820"/>
</g>
<g clip-path="url(#clip9_1_228)">
<path d="M54.7773 57.375V61.875H16.5273V57.375H54.7773Z" fill="#FBD301"/>
</g>
<g clip-path="url(#clip10_1_228)">
<path d="M16.5273 61.875H54.7773V66.375H16.5273V61.875Z" fill="#FBBE18"/>
</g>
<g clip-path="url(#clip11_1_228)">
<path d="M16.5273 57.375L4.03308 63.6221C3.61796 63.8291 3.61796 64.4209 4.03308 64.6279L16.5273 70.875V57.375Z" fill="#DB9E68"/>
</g>
<g clip-path="url(#clip12_1_228)">
<path d="M16.5272 57.375L4.03297 63.6221C3.82597 63.7256 3.72247 63.9247 3.72247 64.125H16.5272V57.375Z" fill="#EEC78E"/>
</g>
<g clip-path="url(#clip13_1_228)">
<path d="M5.27733 63L4.03308 63.6221C3.61796 63.8291 3.61796 64.4209 4.03308 64.6279L5.27733 65.25V63Z" fill="#353744"/>
</g>
<g clip-path="url(#clip14_1_228)">
<path d="M59.2773 57.375V70.875H54.7773V57.375H59.2773Z" fill="#B3B4B6"/>
</g>
<g clip-path="url(#clip15_1_228)">
<path d="M59.2773 57.375V64.125H54.7773V57.375H59.2773Z" fill="#DBDEE3"/>
</g>
<g clip-path="url(#clip16_1_228)">
<path d="M68.2774 67.5V60.75C68.2774 58.8859 66.7665 57.375 64.9023 57.375H59.2773V70.875H63.7773H64.9023C66.7665 70.875 68.2774 69.3641 68.2774 67.5Z" fill="#353744"/>
</g>
<g clip-path="url(#clip17_1_228)">
<path d="M68.2774 64.125V60.75C68.2774 58.8859 66.7665 57.375 64.9023 57.375H59.2773V64.125H68.2774Z" fill="#55525B"/>
</g>
</g>
<g clip-path="url(#clip18_1_228)">
<path d="M61.5273 7.875H12.0273C10.7842 7.875 9.77734 6.86812 9.77734 5.625C9.77734 4.38188 10.7842 3.375 12.0273 3.375H61.5273C62.7705 3.375 63.7773 4.38188 63.7773 5.625C63.7773 6.86812 62.7705 7.875 61.5273 7.875Z" fill="#353744"/>
</g>
<g clip-path="url(#clip19_1_228)">
<path d="M39.0274 5.625C39.0274 4.38188 38.0205 3.375 36.7774 3.375H12.0273C10.7842 3.375 9.77734 4.38188 9.77734 5.625C9.77734 6.867 10.7842 7.875 12.0273 7.875H36.7774C38.0205 7.875 39.0274 6.867 39.0274 5.625Z" fill="#55525B"/>
</g>
<g clip-path="url(#clip20_1_228)">
<path d="M50.8399 16.875H22.7148C22.0938 16.875 21.5898 16.371 21.5898 15.75V7.875H51.9649V15.75C51.9649 16.371 51.4609 16.875 50.8399 16.875Z" fill="#353744"/>
</g>
<g clip-path="url(#clip21_1_228)">
<path d="M36.7774 16.875H22.7148C22.0938 16.875 21.5898 16.371 21.5898 15.75V12.375H34.5274C35.7705 12.375 36.7774 13.3819 36.7774 14.625V16.875Z" fill="#55525B"/>
</g>
<g clip-path="url(#clip22_1_228)">
<path d="M57.0273 3.375H59.2773V16.875H57.0273V3.375Z" fill="#F68820"/>
</g>
<g clip-path="url(#clip23_1_228)">
<path d="M34.5273 3.375H59.2774C59.2774 2.13188 58.2705 1.125 57.0274 1.125H36.7773C35.5342 1.125 34.5273 2.13188 34.5273 3.375Z" fill="#FBBE18"/>
</g>
<g clip-path="url(#clip24_1_228)">
<path d="M58.1523 19.125C59.395 19.125 60.4023 18.1176 60.4023 16.875C60.4023 15.6324 59.395 14.625 58.1523 14.625C56.9097 14.625 55.9023 15.6324 55.9023 16.875C55.9023 18.1176 56.9097 19.125 58.1523 19.125Z" fill="#FBBE18"/>
</g>
<g clip-path="url(#clip25_1_228)">
<path d="M55.9023 16.875H60.4023V19.125H55.9023V16.875Z" fill="#B3B4B6"/>
</g>
<g clip-path="url(#clip26_1_228)">
<path d="M55.9023 16.875H58.1523V19.125H55.9023V16.875Z" fill="#DBDEE3"/>
</g>
<g clip-path="url(#clip27_1_228)">
<path d="M58.1523 28.125H55.9023C55.2813 28.125 54.7773 27.621 54.7773 27V20.25C54.7773 19.629 55.2813 19.125 55.9023 19.125H58.1523V28.125Z" fill="#FBBE18"/>
</g>
<g clip-path="url(#clip28_1_228)">
<path d="M58.1523 28.125H60.4023C61.0233 28.125 61.5273 27.621 61.5273 27V20.25C61.5273 19.629 61.0233 19.125 60.4023 19.125H58.1523V28.125Z" fill="#F68820"/>
</g>
<g clip-path="url(#clip29_1_228)">
<path d="M57.0273 28.125V20.8125C57.0273 20.502 56.7753 20.25 56.4648 20.25C56.1543 20.25 55.9023 20.502 55.9023 20.8125V28.125H57.0273Z" fill="#F68820"/>
</g>
<g clip-path="url(#clip30_1_228)">
<path d="M60.4023 28.125V24.1875C60.4023 23.877 60.1503 23.625 59.8398 23.625C59.5293 23.625 59.2773 23.877 59.2773 24.1875V28.125H60.4023Z" fill="#FBBE18"/>
</g>
<g clip-path="url(#clip31_1_228)">
<path d="M30.0274 34.875C33.7553 34.875 36.7774 31.8529 36.7774 28.125C36.7774 24.3971 33.7553 21.375 30.0274 21.375C26.2994 21.375 23.2773 24.3971 23.2773 28.125C23.2773 31.8529 26.2994 34.875 30.0274 34.875Z" fill="#DBDEE3"/>
</g>
<g clip-path="url(#clip32_1_228)">
<path d="M30.0274 34.875C33.7553 34.875 36.7774 31.8529 36.7774 28.125C36.7774 24.3971 33.7553 21.375 30.0274 21.375C26.2994 21.375 23.2773 24.3971 23.2773 28.125C23.2773 31.8529 26.2994 34.875 30.0274 34.875Z" fill="#DBDEE3"/>
</g>
<g clip-path="url(#clip33_1_228)">
<path d="M30.0273 30.375C31.27 30.375 32.2773 29.3676 32.2773 28.125C32.2773 26.8824 31.27 25.875 30.0273 25.875C28.7847 25.875 27.7773 26.8824 27.7773 28.125C27.7773 29.3676 28.7847 30.375 30.0273 30.375Z" fill="#55525B"/>
</g>
<g clip-path="url(#clip34_1_228)">
<path d="M43.5273 34.875C47.2553 34.875 50.2773 31.8529 50.2773 28.125C50.2773 24.3971 47.2553 21.375 43.5273 21.375C39.7994 21.375 36.7773 24.3971 36.7773 28.125C36.7773 31.8529 39.7994 34.875 43.5273 34.875Z" fill="#DBDEE3"/>
</g>
<g clip-path="url(#clip35_1_228)">
<path d="M43.5273 30.375C44.77 30.375 45.7773 29.3676 45.7773 28.125C45.7773 26.8824 44.77 25.875 43.5273 25.875C42.2847 25.875 41.2773 26.8824 41.2773 28.125C41.2773 29.3676 42.2847 30.375 43.5273 30.375Z" fill="#55525B"/>
</g>
<g clip-path="url(#clip36_1_228)">
<path d="M36.7774 28.125C38.1724 28.125 39.1669 29.4784 38.7506 30.8093L37.8506 33.6881C37.5221 34.7411 36.0315 34.7411 35.703 33.6881L34.803 30.8093C34.3879 29.4784 35.3824 28.125 36.7774 28.125Z" fill="#55525B"/>
</g>
<g clip-path="url(#clip37_1_228)">
<path d="M33.4023 39.375C32.1592 39.375 31.1523 38.3681 31.1523 37.125H35.6523C35.6523 38.3681 34.6455 39.375 33.4023 39.375Z" fill="#FBBE18"/>
</g>
<g clip-path="url(#clip38_1_228)">
<path d="M40.1523 39.375C38.9092 39.375 37.9023 38.3681 37.9023 37.125H42.4023C42.4023 38.3681 41.3955 39.375 40.1523 39.375Z" fill="#FBBE18"/>
</g>
<g clip-path="url(#clip39_1_228)">
<path d="M33.4023 48.375C32.1592 48.375 31.1523 47.3681 31.1523 46.125H35.6523C35.6523 47.3681 34.6455 48.375 33.4023 48.375Z" fill="#FBBE18"/>
</g>
<g clip-path="url(#clip40_1_228)">
<path d="M40.1523 48.375C38.9092 48.375 37.9023 47.3681 37.9023 46.125H42.4023C42.4023 47.3681 41.3955 48.375 40.1523 48.375Z" fill="#FBBE18"/>
</g>
<g clip-path="url(#clip41_1_228)">
<path d="M36.7774 43.875C35.5342 43.875 34.5273 42.8681 34.5273 41.625H39.0274C39.0274 42.8681 38.0205 43.875 36.7774 43.875Z" fill="#FBBE18"/>
</g>
<g clip-path="url(#clip42_1_228)">
<path d="M36.7774 52.875C35.5342 52.875 34.5273 51.8681 34.5273 50.625H39.0274C39.0274 51.8681 38.0205 52.875 36.7774 52.875Z" fill="#FBBE18"/>
</g>
<g clip-path="url(#clip43_1_228)">
<path d="M29.4648 59.625C30.0858 59.625 30.5898 59.121 30.5898 58.5V56.25C30.5898 55.629 30.0858 55.125 29.4648 55.125C28.8438 55.125 28.3398 55.629 28.3398 56.25V58.5C28.3398 59.121 28.8438 59.625 29.4648 59.625Z" fill="#6FA4D8"/>
</g>
<g clip-path="url(#clip44_1_228)">
<path d="M31.7148 59.625C32.3358 59.625 32.8398 59.121 32.8398 58.5V56.25C32.8398 55.629 32.3358 55.125 31.7148 55.125C31.0938 55.125 30.5898 55.629 30.5898 56.25V58.5C30.5898 59.121 31.0938 59.625 31.7148 59.625Z" fill="#6FA4D8"/>
</g>
<g clip-path="url(#clip45_1_228)">
<path d="M33.9648 59.625C34.5858 59.625 35.0898 59.121 35.0898 58.5V56.25C35.0898 55.629 34.5858 55.125 33.9648 55.125C33.3438 55.125 32.8398 55.629 32.8398 56.25V58.5C32.8398 59.121 33.3438 59.625 33.9648 59.625Z" fill="#6FA4D8"/>
</g>
<g clip-path="url(#clip46_1_228)">
<path d="M39.5898 59.625C40.2108 59.625 40.7148 59.121 40.7148 58.5V56.25C40.7148 55.629 40.2108 55.125 39.5898 55.125C38.9688 55.125 38.4648 55.629 38.4648 56.25V58.5C38.4648 59.121 38.9688 59.625 39.5898 59.625Z" fill="#6FA4D8"/>
</g>
<g clip-path="url(#clip47_1_228)">
<path d="M41.8398 59.625C42.4608 59.625 42.9648 59.121 42.9648 58.5V56.25C42.9648 55.629 42.4608 55.125 41.8398 55.125C41.2188 55.125 40.7148 55.629 40.7148 56.25V58.5C40.7148 59.121 41.2188 59.625 41.8398 59.625Z" fill="#6FA4D8"/>
</g>
<g clip-path="url(#clip48_1_228)">
<path d="M44.0898 59.625C44.7108 59.625 45.2148 59.121 45.2148 58.5V56.25C45.2148 55.629 44.7108 55.125 44.0898 55.125C43.4688 55.125 42.9648 55.629 42.9648 56.25V58.5C42.9648 59.121 43.4688 59.625 44.0898 59.625Z" fill="#6FA4D8"/>
</g>
</g>
</g>
<defs>
<clipPath id="clip0_1_228">
<rect width="72" height="72" fill="white"/>
</clipPath>
<clipPath id="clip1_1_228">
<rect width="64.5556" height="69.75" fill="white" transform="translate(3.72174 1.125)"/>
</clipPath>
<clipPath id="clip2_1_228">
<rect width="4.5" height="13.5" fill="white" transform="translate(23.2773 37.125)"/>
</clipPath>
<clipPath id="clip3_1_228">
<rect width="4.5" height="13.5" fill="white" transform="translate(45.7773 37.125)"/>
</clipPath>
<clipPath id="clip4_1_228">
<rect width="27" height="40.5" fill="white" transform="translate(23.2773 16.875)"/>
</clipPath>
<clipPath id="clip5_1_228">
<rect width="20.25" height="15.75" fill="white" transform="translate(16.5273 12.375)"/>
</clipPath>
<clipPath id="clip6_1_228">
<rect width="20.25" height="15.75" fill="white" transform="translate(36.7773 12.375)"/>
</clipPath>
<clipPath id="clip7_1_228">
<rect width="64.5556" height="13.5" fill="white" transform="translate(3.72174 57.375)"/>
</clipPath>
<clipPath id="clip8_1_228">
<rect width="38.25" height="4.50002" fill="white" transform="translate(16.5273 66.375)"/>
</clipPath>
<clipPath id="clip9_1_228">
<rect width="38.25" height="4.50002" fill="white" transform="translate(16.5273 57.375)"/>
</clipPath>
<clipPath id="clip10_1_228">
<rect width="38.25" height="4.5" fill="white" transform="translate(16.5273 61.875)"/>
</clipPath>
<clipPath id="clip11_1_228">
<rect width="12.8056" height="13.5" fill="white" transform="translate(3.72174 57.375)"/>
</clipPath>
<clipPath id="clip12_1_228">
<rect width="12.8048" height="6.75" fill="white" transform="translate(3.72247 57.375)"/>
</clipPath>
<clipPath id="clip13_1_228">
<rect width="1.55559" height="2.25" fill="white" transform="translate(3.72174 63)"/>
</clipPath>
<clipPath id="clip14_1_228">
<rect width="4.5" height="13.5" fill="white" transform="translate(54.7773 57.375)"/>
</clipPath>
<clipPath id="clip15_1_228">
<rect width="4.5" height="6.75" fill="white" transform="translate(54.7773 57.375)"/>
</clipPath>
<clipPath id="clip16_1_228">
<rect width="9.00001" height="13.5" fill="white" transform="translate(59.2773 57.375)"/>
</clipPath>
<clipPath id="clip17_1_228">
<rect width="9.00001" height="6.75" fill="white" transform="translate(59.2773 57.375)"/>
</clipPath>
<clipPath id="clip18_1_228">
<rect width="54" height="4.5" fill="white" transform="translate(9.77734 3.375)"/>
</clipPath>
<clipPath id="clip19_1_228">
<rect width="29.25" height="4.5" fill="white" transform="translate(9.77734 3.375)"/>
</clipPath>
<clipPath id="clip20_1_228">
<rect width="30.375" height="9" fill="white" transform="translate(21.5898 7.875)"/>
</clipPath>
<clipPath id="clip21_1_228">
<rect width="15.1875" height="4.5" fill="white" transform="translate(21.5898 12.375)"/>
</clipPath>
<clipPath id="clip22_1_228">
<rect width="2.25" height="13.5" fill="white" transform="translate(57.0273 3.375)"/>
</clipPath>
<clipPath id="clip23_1_228">
<rect width="24.75" height="2.25" fill="white" transform="translate(34.5273 1.125)"/>
</clipPath>
<clipPath id="clip24_1_228">
<rect width="4.5" height="4.5" fill="white" transform="translate(55.9023 14.625)"/>
</clipPath>
<clipPath id="clip25_1_228">
<rect width="4.5" height="2.25" fill="white" transform="translate(55.9023 16.875)"/>
</clipPath>
<clipPath id="clip26_1_228">
<rect width="2.25" height="2.25" fill="white" transform="translate(55.9023 16.875)"/>
</clipPath>
<clipPath id="clip27_1_228">
<rect width="3.375" height="9" fill="white" transform="translate(54.7773 19.125)"/>
</clipPath>
<clipPath id="clip28_1_228">
<rect width="3.375" height="9" fill="white" transform="translate(58.1523 19.125)"/>
</clipPath>
<clipPath id="clip29_1_228">
<rect width="1.125" height="7.875" fill="white" transform="translate(55.9023 20.25)"/>
</clipPath>
<clipPath id="clip30_1_228">
<rect width="1.125" height="4.5" fill="white" transform="translate(59.2773 23.625)"/>
</clipPath>
<clipPath id="clip31_1_228">
<rect width="13.5" height="13.5" fill="white" transform="translate(23.2773 21.375)"/>
</clipPath>
<clipPath id="clip32_1_228">
<rect width="13.5" height="13.5" fill="white" transform="translate(23.2773 21.375)"/>
</clipPath>
<clipPath id="clip33_1_228">
<rect width="4.5" height="4.5" fill="white" transform="translate(27.7773 25.875)"/>
</clipPath>
<clipPath id="clip34_1_228">
<rect width="13.5" height="13.5" fill="white" transform="translate(36.7773 21.375)"/>
</clipPath>
<clipPath id="clip35_1_228">
<rect width="4.5" height="4.5" fill="white" transform="translate(41.2773 25.875)"/>
</clipPath>
<clipPath id="clip36_1_228">
<rect width="4.13847" height="6.35288" fill="white" transform="translate(34.7078 28.125)"/>
</clipPath>
<clipPath id="clip37_1_228">
<rect width="4.5" height="2.25" fill="white" transform="translate(31.1523 37.125)"/>
</clipPath>
<clipPath id="clip38_1_228">
<rect width="4.5" height="2.25" fill="white" transform="translate(37.9023 37.125)"/>
</clipPath>
<clipPath id="clip39_1_228">
<rect width="4.5" height="2.25" fill="white" transform="translate(31.1523 46.125)"/>
</clipPath>
<clipPath id="clip40_1_228">
<rect width="4.5" height="2.25" fill="white" transform="translate(37.9023 46.125)"/>
</clipPath>
<clipPath id="clip41_1_228">
<rect width="4.50002" height="2.25" fill="white" transform="translate(34.5273 41.625)"/>
</clipPath>
<clipPath id="clip42_1_228">
<rect width="4.50002" height="2.25" fill="white" transform="translate(34.5273 50.625)"/>
</clipPath>
<clipPath id="clip43_1_228">
<rect width="2.25" height="4.5" fill="white" transform="translate(28.3398 55.125)"/>
</clipPath>
<clipPath id="clip44_1_228">
<rect width="2.25" height="4.5" fill="white" transform="translate(30.5898 55.125)"/>
</clipPath>
<clipPath id="clip45_1_228">
<rect width="2.25" height="4.5" fill="white" transform="translate(32.8398 55.125)"/>
</clipPath>
<clipPath id="clip46_1_228">
<rect width="2.25" height="4.5" fill="white" transform="translate(38.4648 55.125)"/>
</clipPath>
<clipPath id="clip47_1_228">
<rect width="2.25" height="4.5" fill="white" transform="translate(40.7148 55.125)"/>
</clipPath>
<clipPath id="clip48_1_228">
<rect width="2.25" height="4.5" fill="white" transform="translate(42.9648 55.125)"/>
</clipPath>
</defs>
</svg>
